<svg xmlns="http://www.w3.org/2000/svg" xmlns:xlink="http://www.w3.org/1999/xlink" width="137" zoomAndPan="magnify" viewBox="0 0 102.75 30.000001" height="40" preserveAspectRatio="xMidYMid meet" version="1.0"><defs><g/></defs><g fill="#ff0000" fill-opacity="1"><g transform="translate(26.52781, 13.510324)"><g><path d="M 9.347656 0 L 5.722656 -7.761719 L 2.0625 -7.761719 L 2.0625 -5.988281 L 2.894531 -5.988281 L 0.109375 0 L 2.050781 0 L 2.671875 -1.332031 L 6.773438 -1.332031 L 7.40625 0 Z M 5.941406 -3.105469 L 3.492188 -3.105469 L 4.679688 -6.019531 L 4.757812 -6.019531 Z M 5.941406 -3.105469 "/></g></g></g><g fill="#ff0000" fill-opacity="1"><g transform="translate(37.171158, 13.510324)"><g><path d="M 6.820312 0 L 7.925781 -1.109375 L 7.925781 -3.660156 L 6.820312 -4.765625 L 2.328125 -4.765625 L 2.328125 -5.988281 L 7.925781 -5.988281 L 7.925781 -7.761719 L 1.664062 -7.761719 L 0.554688 -6.652344 L 0.554688 -4.101562 L 1.664062 -2.992188 L 6.152344 -2.992188 L 6.152344 -1.773438 L 0.554688 -1.773438 L 0.554688 0 Z M 6.820312 0 "/></g></g></g><g fill="#ff0000" fill-opacity="1"><g transform="translate(46.838865, 13.510324)"><g><path d="M 4.890625 0 L 4.890625 -5.988281 L 7.949219 -5.988281 L 7.949219 -7.761719 L 0.0546875 -7.761719 L 0.0546875 -5.988281 L 3.117188 -5.988281 L 3.117188 0 Z M 4.890625 0 "/></g></g></g><g fill="#ff0000" fill-opacity="1"><g transform="translate(56.029841, 13.510324)"><g><path d="M 8.425781 0 L 8.425781 -7.761719 L 6.652344 -7.761719 L 6.652344 -4.765625 L 2.660156 -4.765625 L 2.660156 -7.761719 L 0.0546875 -7.761719 L 0.0546875 -5.988281 L 0.886719 -5.988281 L 0.886719 0 L 2.660156 0 L 2.660156 -2.992188 L 6.652344 -2.992188 L 6.652344 0 Z M 8.425781 0 "/></g></g></g><g fill="#ff0000" fill-opacity="1"><g transform="translate(66.196454, 13.510324)"><g><path d="M 8.371094 0 L 8.371094 -6.652344 L 7.261719 -7.761719 L 0.832031 -7.761719 L 0.832031 -5.988281 L 6.597656 -5.988281 L 6.597656 -4.765625 L 1.664062 -4.765625 L 0.554688 -3.660156 L 0.554688 -1.109375 L 1.664062 0 L 6.042969 0 L 6.042969 -1.773438 L 2.328125 -1.773438 L 2.328125 -2.992188 L 6.597656 -2.992188 L 6.597656 -1.109375 L 7.707031 0 Z M 8.371094 0 "/></g></g></g><g fill="#00ffff" fill-opacity="1"><g transform="translate(27.628227, 13.375209)"><g><path d="M 9.347656 0 L 5.722656 -7.761719 L 2.0625 -7.761719 L 2.0625 -5.988281 L 2.894531 -5.988281 L 0.109375 0 L 2.050781 0 L 2.671875 -1.332031 L 6.773438 -1.332031 L 7.40625 0 Z M 5.941406 -3.105469 L 3.492188 -3.105469 L 4.679688 -6.019531 L 4.757812 -6.019531 Z M 5.941406 -3.105469 "/></g></g></g><g fill="#00ffff" fill-opacity="1"><g transform="translate(38.271576, 13.375209)"><g><path d="M 6.820312 0 L 7.925781 -1.109375 L 7.925781 -3.660156 L 6.820312 -4.765625 L 2.328125 -4.765625 L 2.328125 -5.988281 L 7.925781 -5.988281 L 7.925781 -7.761719 L 1.664062 -7.761719 L 0.554688 -6.652344 L 0.554688 -4.101562 L 1.664062 -2.992188 L 6.152344 -2.992188 L 6.152344 -1.773438 L 0.554688 -1.773438 L 0.554688 0 Z M 6.820312 0 "/></g></g></g><g fill="#00ffff" fill-opacity="1"><g transform="translate(47.939283, 13.375209)"><g><path d="M 4.890625 0 L 4.890625 -5.988281 L 7.949219 -5.988281 L 7.949219 -7.761719 L 0.0546875 -7.761719 L 0.0546875 -5.988281 L 3.117188 -5.988281 L 3.117188 0 Z M 4.890625 0 "/></g></g></g><g fill="#00ffff" fill-opacity="1"><g transform="translate(57.130259, 13.375209)"><g><path d="M 8.425781 0 L 8.425781 -7.761719 L 6.652344 -7.761719 L 6.652344 -4.765625 L 2.660156 -4.765625 L 2.660156 -7.761719 L 0.0546875 -7.761719 L 0.0546875 -5.988281 L 0.886719 -5.988281 L 0.886719 0 L 2.660156 0 L 2.660156 -2.992188 L 6.652344 -2.992188 L 6.652344 0 Z M 8.425781 0 "/></g></g></g><g fill="#00ffff" fill-opacity="1"><g transform="translate(67.296872, 13.375209)"><g><path d="M 8.371094 0 L 8.371094 -6.652344 L 7.261719 -7.761719 L 0.832031 -7.761719 L 0.832031 -5.988281 L 6.597656 -5.988281 L 6.597656 -4.765625 L 1.664062 -4.765625 L 0.554688 -3.660156 L 0.554688 -1.109375 L 1.664062 0 L 6.042969 0 L 6.042969 -1.773438 L 2.328125 -1.773438 L 2.328125 -2.992188 L 6.597656 -2.992188 L 6.597656 -1.109375 L 7.707031 0 Z M 8.371094 0 "/></g></g></g><g fill="#88ff55" fill-opacity="1"><g transform="translate(27.078019, 13.442767)"><g><path d="M 9.347656 0 L 5.722656 -7.761719 L 2.0625 -7.761719 L 2.0625 -5.988281 L 2.894531 -5.988281 L 0.109375 0 L 2.050781 0 L 2.671875 -1.332031 L 6.773438 -1.332031 L 7.40625 0 Z M 5.941406 -3.105469 L 3.492188 -3.105469 L 4.679688 -6.019531 L 4.757812 -6.019531 Z M 5.941406 -3.105469 "/></g></g></g><g fill="#88ff55" fill-opacity="1"><g transform="translate(37.721367, 13.442767)"><g><path d="M 6.820312 0 L 7.925781 -1.109375 L 7.925781 -3.660156 L 6.820312 -4.765625 L 2.328125 -4.765625 L 2.328125 -5.988281 L 7.925781 -5.988281 L 7.925781 -7.761719 L 1.664062 -7.761719 L 0.554688 -6.652344 L 0.554688 -4.101562 L 1.664062 -2.992188 L 6.152344 -2.992188 L 6.152344 -1.773438 L 0.554688 -1.773438 L 0.554688 0 Z M 6.820312 0 "/></g></g></g><g fill="#88ff55" fill-opacity="1"><g transform="translate(47.389074, 13.442767)"><g><path d="M 4.890625 0 L 4.890625 -5.988281 L 7.949219 -5.988281 L 7.949219 -7.761719 L 0.0546875 -7.761719 L 0.0546875 -5.988281 L 3.117188 -5.988281 L 3.117188 0 Z M 4.890625 0 "/></g></g></g><g fill="#88ff55" fill-opacity="1"><g transform="translate(56.58005, 13.442767)"><g><path d="M 8.425781 0 L 8.425781 -7.761719 L 6.652344 -7.761719 L 6.652344 -4.765625 L 2.660156 -4.765625 L 2.660156 -7.761719 L 0.0546875 -7.761719 L 0.0546875 -5.988281 L 0.886719 -5.988281 L 0.886719 0 L 2.660156 0 L 2.660156 -2.992188 L 6.652344 -2.992188 L 6.652344 0 Z M 8.425781 0 "/></g></g></g><g fill="#88ff55" fill-opacity="1"><g transform="translate(66.746663, 13.442767)"><g><path d="M 8.371094 0 L 8.371094 -6.652344 L 7.261719 -7.761719 L 0.832031 -7.761719 L 0.832031 -5.988281 L 6.597656 -5.988281 L 6.597656 -4.765625 L 1.664062 -4.765625 L 0.554688 -3.660156 L 0.554688 -1.109375 L 1.664062 0 L 6.042969 0 L 6.042969 -1.773438 L 2.328125 -1.773438 L 2.328125 -2.992188 L 6.597656 -2.992188 L 6.597656 -1.109375 L 7.707031 0 Z M 8.371094 0 "/></g></g></g><g fill="#ff0000" fill-opacity="1"><g transform="translate(10.31334, 23.488458)"><g><path d="M 6.761719 -1.882812 L 7.871094 -2.992188 L 7.871094 -6.652344 L 6.761719 -7.761719 L 0.0546875 -7.761719 L 0.0546875 -5.988281 L 6.097656 -5.988281 L 6.097656 -3.660156 L 2.660156 -3.660156 L 2.660156 -5.433594 L 0.886719 -5.433594 L 0.886719 0 L 2.660156 0 L 2.660156 -1.882812 Z M 6.761719 -1.882812 "/></g></g></g><g fill="#ff0000" fill-opacity="1"><g transform="translate(19.703878, 23.488458)"><g><path d="M 6.761719 -1.882812 L 7.871094 -2.992188 L 7.871094 -6.652344 L 6.761719 -7.761719 L 0.0546875 -7.761719 L 0.0546875 -5.988281 L 6.097656 -5.988281 L 6.097656 -3.660156 L 2.660156 -3.660156 L 2.660156 -5.433594 L 0.886719 -5.433594 L 0.886719 0 L 2.660156 0 L 2.660156 -1.882812 L 4.511719 -1.882812 C 5.066406 -1.253906 5.609375 -0.621094 6.175781 0 L 8.425781 0 C 7.859375 -0.621094 7.316406 -1.253906 6.761719 -1.882812 Z M 6.761719 -1.882812 "/></g></g></g><g fill="#ff0000" fill-opacity="1"><g transform="translate(29.427022, 23.488458)"><g><path d="M 8.371094 0 L 8.371094 -6.652344 L 7.261719 -7.761719 L 0.832031 -7.761719 L 0.832031 -5.988281 L 6.597656 -5.988281 L 6.597656 -4.765625 L 1.664062 -4.765625 L 0.554688 -3.660156 L 0.554688 -1.109375 L 1.664062 0 L 6.042969 0 L 6.042969 -1.773438 L 2.328125 -1.773438 L 2.328125 -2.992188 L 6.597656 -2.992188 L 6.597656 -1.109375 L 7.707031 0 Z M 8.371094 0 "/></g></g></g><g fill="#ff0000" fill-opacity="1"><g transform="translate(39.538202, 23.488458)"><g><path d="M 7.261719 0 L 8.371094 -1.109375 L 8.371094 -7.761719 L 2.773438 -7.761719 L 2.773438 -5.988281 L 6.597656 -5.988281 L 6.597656 -1.773438 L 2.328125 -1.773438 L 2.328125 -2.882812 L 0.554688 -2.882812 L 0.554688 -1.109375 L 1.664062 0 Z M 7.261719 0 "/></g></g></g><g fill="#ff0000" fill-opacity="1"><g transform="translate(49.649381, 23.488458)"><g><path d="M 8.371094 0 L 8.371094 -6.652344 L 7.261719 -7.761719 L 0.832031 -7.761719 L 0.832031 -5.988281 L 6.597656 -5.988281 L 6.597656 -4.765625 L 1.664062 -4.765625 L 0.554688 -3.660156 L 0.554688 -1.109375 L 1.664062 0 L 6.042969 0 L 6.042969 -1.773438 L 2.328125 -1.773438 L 2.328125 -2.992188 L 6.597656 -2.992188 L 6.597656 -1.109375 L 7.707031 0 Z M 8.371094 0 "/></g></g></g><g fill="#ff0000" fill-opacity="1"><g transform="translate(59.760561, 23.488458)"><g><path d="M 6.761719 -1.882812 L 7.871094 -2.992188 L 7.871094 -6.652344 L 6.761719 -7.761719 L 0.0546875 -7.761719 L 0.0546875 -5.988281 L 6.097656 -5.988281 L 6.097656 -3.660156 L 2.660156 -3.660156 L 2.660156 -5.433594 L 0.886719 -5.433594 L 0.886719 0 L 2.660156 0 L 2.660156 -1.882812 Z M 6.761719 -1.882812 "/></g></g></g><g fill="#ff0000" fill-opacity="1"><g transform="translate(69.1511, 23.488458)"><g><path d="M 8.371094 0 L 8.371094 -6.652344 L 7.261719 -7.761719 L 0.832031 -7.761719 L 0.832031 -5.988281 L 6.597656 -5.988281 L 6.597656 -4.765625 L 1.664062 -4.765625 L 0.554688 -3.660156 L 0.554688 -1.109375 L 1.664062 0 L 6.042969 0 L 6.042969 -1.773438 L 2.328125 -1.773438 L 2.328125 -2.992188 L 6.597656 -2.992188 L 6.597656 -1.109375 L 7.707031 0 Z M 8.371094 0 "/></g></g></g><g fill="#ff0000" fill-opacity="1"><g transform="translate(79.262279, 23.488458)"><g><path d="M 4.890625 0 L 4.890625 -5.988281 L 7.949219 -5.988281 L 7.949219 -7.761719 L 0.0546875 -7.761719 L 0.0546875 -5.988281 L 3.117188 -5.988281 L 3.117188 0 Z M 4.890625 0 "/></g></g></g><g fill="#ff0000" fill-opacity="1"><g transform="translate(88.453251, 23.488458)"><g><path d="M 2.328125 0 L 2.328125 -7.761719 L 0.554688 -7.761719 L 0.554688 0 Z M 2.328125 0 "/></g></g></g><g fill="#00ffff" fill-opacity="1"><g transform="translate(11.413758, 23.353344)"><g><path d="M 6.761719 -1.882812 L 7.871094 -2.992188 L 7.871094 -6.652344 L 6.761719 -7.761719 L 0.0546875 -7.761719 L 0.0546875 -5.988281 L 6.097656 -5.988281 L 6.097656 -3.660156 L 2.660156 -3.660156 L 2.660156 -5.433594 L 0.886719 -5.433594 L 0.886719 0 L 2.660156 0 L 2.660156 -1.882812 Z M 6.761719 -1.882812 "/></g></g></g><g fill="#00ffff" fill-opacity="1"><g transform="translate(20.804296, 23.353344)"><g><path d="M 6.761719 -1.882812 L 7.871094 -2.992188 L 7.871094 -6.652344 L 6.761719 -7.761719 L 0.0546875 -7.761719 L 0.0546875 -5.988281 L 6.097656 -5.988281 L 6.097656 -3.660156 L 2.660156 -3.660156 L 2.660156 -5.433594 L 0.886719 -5.433594 L 0.886719 0 L 2.660156 0 L 2.660156 -1.882812 L 4.511719 -1.882812 C 5.066406 -1.253906 5.609375 -0.621094 6.175781 0 L 8.425781 0 C 7.859375 -0.621094 7.316406 -1.253906 6.761719 -1.882812 Z M 6.761719 -1.882812 "/></g></g></g><g fill="#00ffff" fill-opacity="1"><g transform="translate(30.52744, 23.353344)"><g><path d="M 8.371094 0 L 8.371094 -6.652344 L 7.261719 -7.761719 L 0.832031 -7.761719 L 0.832031 -5.988281 L 6.597656 -5.988281 L 6.597656 -4.765625 L 1.664062 -4.765625 L 0.554688 -3.660156 L 0.554688 -1.109375 L 1.664062 0 L 6.042969 0 L 6.042969 -1.773438 L 2.328125 -1.773438 L 2.328125 -2.992188 L 6.597656 -2.992188 L 6.597656 -1.109375 L 7.707031 0 Z M 8.371094 0 "/></g></g></g><g fill="#00ffff" fill-opacity="1"><g transform="translate(40.638619, 23.353344)"><g><path d="M 7.261719 0 L 8.371094 -1.109375 L 8.371094 -7.761719 L 2.773438 -7.761719 L 2.773438 -5.988281 L 6.597656 -5.988281 L 6.597656 -1.773438 L 2.328125 -1.773438 L 2.328125 -2.882812 L 0.554688 -2.882812 L 0.554688 -1.109375 L 1.664062 0 Z M 7.261719 0 "/></g></g></g><g fill="#00ffff" fill-opacity="1"><g transform="translate(50.749799, 23.353344)"><g><path d="M 8.371094 0 L 8.371094 -6.652344 L 7.261719 -7.761719 L 0.832031 -7.761719 L 0.832031 -5.988281 L 6.597656 -5.988281 L 6.597656 -4.765625 L 1.664062 -4.765625 L 0.554688 -3.660156 L 0.554688 -1.109375 L 1.664062 0 L 6.042969 0 L 6.042969 -1.773438 L 2.328125 -1.773438 L 2.328125 -2.992188 L 6.597656 -2.992188 L 6.597656 -1.109375 L 7.707031 0 Z M 8.371094 0 "/></g></g></g><g fill="#00ffff" fill-opacity="1"><g transform="translate(60.860978, 23.353344)"><g><path d="M 6.761719 -1.882812 L 7.871094 -2.992188 L 7.871094 -6.652344 L 6.761719 -7.761719 L 0.0546875 -7.761719 L 0.0546875 -5.988281 L 6.097656 -5.988281 L 6.097656 -3.660156 L 2.660156 -3.660156 L 2.660156 -5.433594 L 0.886719 -5.433594 L 0.886719 0 L 2.660156 0 L 2.660156 -1.882812 Z M 6.761719 -1.882812 "/></g></g></g><g fill="#00ffff" fill-opacity="1"><g transform="translate(70.251517, 23.353344)"><g><path d="M 8.371094 0 L 8.371094 -6.652344 L 7.261719 -7.761719 L 0.832031 -7.761719 L 0.832031 -5.988281 L 6.597656 -5.988281 L 6.597656 -4.765625 L 1.664062 -4.765625 L 0.554688 -3.660156 L 0.554688 -1.109375 L 1.664062 0 L 6.042969 0 L 6.042969 -1.773438 L 2.328125 -1.773438 L 2.328125 -2.992188 L 6.597656 -2.992188 L 6.597656 -1.109375 L 7.707031 0 Z M 8.371094 0 "/></g></g></g><g fill="#00ffff" fill-opacity="1"><g transform="translate(80.362697, 23.353344)"><g><path d="M 4.890625 0 L 4.890625 -5.988281 L 7.949219 -5.988281 L 7.949219 -7.761719 L 0.0546875 -7.761719 L 0.0546875 -5.988281 L 3.117188 -5.988281 L 3.117188 0 Z M 4.890625 0 "/></g></g></g><g fill="#00ffff" fill-opacity="1"><g transform="translate(89.553669, 23.353344)"><g><path d="M 2.328125 0 L 2.328125 -7.761719 L 0.554688 -7.761719 L 0.554688 0 Z M 2.328125 0 "/></g></g></g><g fill="#88ff55" fill-opacity="1"><g transform="translate(10.863549, 23.420901)"><g><path d="M 6.761719 -1.882812 L 7.871094 -2.992188 L 7.871094 -6.652344 L 6.761719 -7.761719 L 0.0546875 -7.761719 L 0.0546875 -5.988281 L 6.097656 -5.988281 L 6.097656 -3.660156 L 2.660156 -3.660156 L 2.660156 -5.433594 L 0.886719 -5.433594 L 0.886719 0 L 2.660156 0 L 2.660156 -1.882812 Z M 6.761719 -1.882812 "/></g></g></g><g fill="#88ff55" fill-opacity="1"><g transform="translate(20.254087, 23.420901)"><g><path d="M 6.761719 -1.882812 L 7.871094 -2.992188 L 7.871094 -6.652344 L 6.761719 -7.761719 L 0.0546875 -7.761719 L 0.0546875 -5.988281 L 6.097656 -5.988281 L 6.097656 -3.660156 L 2.660156 -3.660156 L 2.660156 -5.433594 L 0.886719 -5.433594 L 0.886719 0 L 2.660156 0 L 2.660156 -1.882812 L 4.511719 -1.882812 C 5.066406 -1.253906 5.609375 -0.621094 6.175781 0 L 8.425781 0 C 7.859375 -0.621094 7.316406 -1.253906 6.761719 -1.882812 Z M 6.761719 -1.882812 "/></g></g></g><g fill="#88ff55" fill-opacity="1"><g transform="translate(29.977231, 23.420901)"><g><path d="M 8.371094 0 L 8.371094 -6.652344 L 7.261719 -7.761719 L 0.832031 -7.761719 L 0.832031 -5.988281 L 6.597656 -5.988281 L 6.597656 -4.765625 L 1.664062 -4.765625 L 0.554688 -3.660156 L 0.554688 -1.109375 L 1.664062 0 L 6.042969 0 L 6.042969 -1.773438 L 2.328125 -1.773438 L 2.328125 -2.992188 L 6.597656 -2.992188 L 6.597656 -1.109375 L 7.707031 0 Z M 8.371094 0 "/></g></g></g><g fill="#88ff55" fill-opacity="1"><g transform="translate(40.088411, 23.420901)"><g><path d="M 7.261719 0 L 8.371094 -1.109375 L 8.371094 -7.761719 L 2.773438 -7.761719 L 2.773438 -5.988281 L 6.597656 -5.988281 L 6.597656 -1.773438 L 2.328125 -1.773438 L 2.328125 -2.882812 L 0.554688 -2.882812 L 0.554688 -1.109375 L 1.664062 0 Z M 7.261719 0 "/></g></g></g><g fill="#88ff55" fill-opacity="1"><g transform="translate(50.19959, 23.420901)"><g><path d="M 8.371094 0 L 8.371094 -6.652344 L 7.261719 -7.761719 L 0.832031 -7.761719 L 0.832031 -5.988281 L 6.597656 -5.988281 L 6.597656 -4.765625 L 1.664062 -4.765625 L 0.554688 -3.660156 L 0.554688 -1.109375 L 1.664062 0 L 6.042969 0 L 6.042969 -1.773438 L 2.328125 -1.773438 L 2.328125 -2.992188 L 6.597656 -2.992188 L 6.597656 -1.109375 L 7.707031 0 Z M 8.371094 0 "/></g></g></g><g fill="#88ff55" fill-opacity="1"><g transform="translate(60.31077, 23.420901)"><g><path d="M 6.761719 -1.882812 L 7.871094 -2.992188 L 7.871094 -6.652344 L 6.761719 -7.761719 L 0.0546875 -7.761719 L 0.0546875 -5.988281 L 6.097656 -5.988281 L 6.097656 -3.660156 L 2.660156 -3.660156 L 2.660156 -5.433594 L 0.886719 -5.433594 L 0.886719 0 L 2.660156 0 L 2.660156 -1.882812 Z M 6.761719 -1.882812 "/></g></g></g><g fill="#88ff55" fill-opacity="1"><g transform="translate(69.701309, 23.420901)"><g><path d="M 8.371094 0 L 8.371094 -6.652344 L 7.261719 -7.761719 L 0.832031 -7.761719 L 0.832031 -5.988281 L 6.597656 -5.988281 L 6.597656 -4.765625 L 1.664062 -4.765625 L 0.554688 -3.660156 L 0.554688 -1.109375 L 1.664062 0 L 6.042969 0 L 6.042969 -1.773438 L 2.328125 -1.773438 L 2.328125 -2.992188 L 6.597656 -2.992188 L 6.597656 -1.109375 L 7.707031 0 Z M 8.371094 0 "/></g></g></g><g fill="#88ff55" fill-opacity="1"><g transform="translate(79.812488, 23.420901)"><g><path d="M 4.890625 0 L 4.890625 -5.988281 L 7.949219 -5.988281 L 7.949219 -7.761719 L 0.0546875 -7.761719 L 0.0546875 -5.988281 L 3.117188 -5.988281 L 3.117188 0 Z M 4.890625 0 "/></g></g></g><g fill="#88ff55" fill-opacity="1"><g transform="translate(89.00346, 23.420901)"><g><path d="M 2.328125 0 L 2.328125 -7.761719 L 0.554688 -7.761719 L 0.554688 0 Z M 2.328125 0 "/></g></g></g></svg>